<?xml version="1.0" encoding="utf-8"?>
<!-- Generator: Adobe Illustrator 18.1.1, SVG Export Plug-In . SVG Version: 6.00 Build 0)  -->
<svg version="1.0" id="Layer_1" xmlns="http://www.w3.org/2000/svg" xmlns:xlink="http://www.w3.org/1999/xlink" x="0px" y="0px"
	 viewBox="0 0 566 88.3" enable-background="new 0 0 566 88.3" xml:space="preserve">
<g>
	<g>
		<path fill="#F6891F" d="M282.2,65.5L282.2,65.5c0-9,6.6-16.3,15.9-16.3c5.7,0,9.1,2,12.3,5l-2.4,2.6c-2.7-2.5-5.6-4.3-9.9-4.3
			c-7,0-12.2,5.7-12.2,12.9v0.1c0,7.3,5.3,13,12.2,13c4.3,0,7.1-1.7,10.1-4.5l2.3,2.3c-3.3,3.3-6.9,5.5-12.6,5.5
			C288.9,81.7,282.2,74.5,282.2,65.5z"/>
		<path fill="#F6891F" d="M316.7,49.7h3.5v14h18.1v-14h3.5v31.4h-3.5V67h-18.1v14.1h-3.5V49.7z"/>
		<path fill="#F6891F" d="M362.4,49.5h3.3l14.3,31.7h-3.8l-3.7-8.3h-17.1l-3.7,8.3h-3.6L362.4,49.5z M371.2,69.6l-7.1-16l-7.2,16
			H371.2z"/>
		<path fill="#F6891F" d="M386.3,49.7h3.5v28.2h17.7v3.3h-21.2V49.7z"/>
		<path fill="#F6891F" d="M414.1,49.7h3.5v28.2h17.7v3.3h-21.2L414.1,49.7L414.1,49.7z"/>
		<path fill="#F6891F" d="M441.9,49.7h22.7v3.2h-19.2v10.7h17.2v3.2h-17.2v11h19.4v3.2h-22.9V49.7z"/>
		<path fill="#F6891F" d="M472,49.7h3.3l19.8,25.2V49.7h3.5v31.4h-2.8l-20.3-25.8v25.8H472V49.7z"/>
		<path fill="#F6891F" d="M506.1,65.5L506.1,65.5c0-8.7,6.3-16.3,15.8-16.3c5.3,0,8.6,1.5,11.7,4.2l-2.3,2.7
			c-2.4-2.1-5.1-3.6-9.6-3.6c-7,0-11.9,5.9-11.9,12.9v0.1c0,7.5,4.8,13.1,12.4,13.1c3.6,0,6.9-1.4,9.1-3.1v-7.8h-9.6v-3.2h13v12.5
			c-2.9,2.6-7.3,4.8-12.6,4.8C512.2,81.7,506.1,74.5,506.1,65.5z"/>
		<path fill="#F6891F" d="M542.7,49.7h22.7v3.2h-19.2v10.7h17.2v3.2h-17.2v11h19.4v3.2h-22.9V49.7z"/>
	</g>
	<g>
		<path fill="#838384" d="M291.2,13.4h-9.6V7h26v6.4h-9.6v25.1h-6.9L291.2,13.4L291.2,13.4z"/>
		<path fill="#838384" d="M320.1,6.8h6.4L340,38.4h-7.2l-2.9-7.1h-13.3l-2.9,7.1h-7.1L320.1,6.8z M327.4,25.3l-4.2-10.2L319,25.3
			H327.4z"/>
		<path fill="#838384" d="M371.6,7l-10.5,15.4l11,16.1H364l-7.1-10.8l-7.1,10.8H342l11-16L342.4,7h8.1l6.6,10.2L363.8,7L371.6,7
			L371.6,7z"/>
		<path fill="#838384" d="M391.6,7h12.3c9.9,0,16.7,6.8,16.7,15.6v0.1c0,8.8-6.8,15.7-16.7,15.7h-12.3V7z M398.5,13.2v19h5.3
			c5.7,0,9.5-3.8,9.5-9.4v-0.1c0-5.6-3.8-9.5-9.5-9.5L398.5,13.2L398.5,13.2z"/>
		<path fill="#838384" d="M427.2,7h23.7v6.2H434v6.4h14.8v6.2H434v6.6h17.1v6.2h-23.9V7z"/>
		<path fill="#838384" d="M455.6,33.9l4.1-4.9c2.8,2.3,5.8,3.8,9.4,3.8c2.8,0,4.5-1.1,4.5-3v-0.1c0-1.8-1.1-2.6-6.3-4
			c-6.3-1.6-10.4-3.4-10.4-9.6V16c0-5.7,4.6-9.5,11-9.5c4.6,0,8.5,1.4,11.7,4l-3.6,5.2c-2.8-1.9-5.5-3.1-8.2-3.1c-2.6,0-4,1.2-4,2.7
			v0.1c0,2.1,1.3,2.7,6.8,4.1c6.4,1.7,10,4,10,9.4v0.1c0,6.2-4.8,9.7-11.5,9.7C464.1,38.9,459.3,37.2,455.6,33.9z"/>
		<path fill="#838384" d="M487.2,7h6.9v31.4h-6.9V7z"/>
		<path fill="#838384" d="M501,22.8L501,22.8c0-9,7-16.3,16.5-16.3c5.7,0,9.1,1.5,12.3,4.3l-4.4,5.3c-2.4-2-4.6-3.2-8.2-3.2
			c-5,0-9,4.4-9,9.8v0.1c0,5.7,4,10,9.5,10c2.5,0,4.8-0.6,6.5-1.9v-4.5h-7v-6H531V34c-3.2,2.7-7.7,5-13.4,5
			C507.8,39,501,32.1,501,22.8z"/>
		<path fill="#838384" d="M538.1,7h6.4l14.7,19.4V7h6.8v31.4h-5.9l-15.2-20v20h-6.8V7z"/>
	</g>
	<g>
		<path fill="#34679A" d="M95.2,11.7C94.1,9.8,82.3,4.4,65.3,0.9c-7,7.5-7,10.4-7.2,11.7C58,13.9,60.5,17,63,20.2
			c4.6,6,5.9,7.1,6.6,8.9c1.4,3.4-0.9,11.1-2.5,18.2c0,0-4.2-15-6.1-24.8c-0.2-0.9,0.2-1.5,0.2-1.4c-10.5-1-17.5-1.5-18.8,4
			c-4.8,0-7,1.4-7.5,2.2c-1.3,2,0.2,6.3,1,8.4c0.7-1.7,5-1.4,6.4-1.3c0.6,0,0.6,0.4,0.8,0.7l0,20.4H30.7L20,84.1
			c5,2.4,10.2,4.2,13.4,4.2c3.2,0,11.2-4.2,12.4-4.2c1.1,0,9.1,4.2,12.4,4.2c3.2,0,8.4-1.6,13.4-4.2L60.8,55.5c0,0-10.8,0-12.4,0
			c0-4.6,0-14.7,0-19.3c-0.2-1.3-0.8-1.7-1.3-1.8h6.3c-0.9-3.7-2.2-6.2-3.9-6.4c0.5-0.7,0.9-1,1.6-1.7h-4.8c0.5-2.5,6.8-1.6,9.5-1.4
			c2.8,13.7,8,32.1,8.3,32.4c0.2,0.3,4.7,2,5.2,2c2.6-5.5,6.4-21.6,6.6-25.5c3.2,1.1,1.9,5.4,1.3,9.7c-3.6,22.2-6.5,28.8-7.4,32.9
			c3.2-0.7,5.2-1.3,5.5-1.6c0.5-0.5,2-4.2,3.3-8.4c1.9-6,5-21.3,4.8-27.3c0-1.5-1.2-2.9-3.4-4c0,0,1.1-1.9,1.6-3.1
			c0.7-1.6,1.4-4.2,1.4-4.2c1.3,0.4,2.4,0.9,2.5,2.2c0.7,5.8,0.3,6.4-0.4,17.1c-0.2,3.4-1.4,10.2-2.7,17.3C80.2,77.5,78,83,78,85
			c3.4-1.1,6-1.9,6.3-2.4c0.3-0.6,2.8-6.9,4.6-16.4c0.8-4,1.3-8,2-12.2C91.8,48.6,92,43,92,38.2c0-6.9,0.8-6.9-4.3-9.7
			c2-5.6,1.5-9.3,1-10.4c-0.9-2-1.9-2-6.5-1.7c1.6,1.5,1.1,4.6,0.7,6.4c-0.9-0.7-0.5-2-5.4-1.8c-0.7-7.8-2.2-8.7-2.4-9
			c-0.7-0.9-4.7-0.5-5.9,0c0.9,0.6,2.7,6.8,1.8,9.1c-0.5-0.7-7.3-8.4-6.8-9.8c0.3-0.9,0.7-1.8,3.1-4.5c8.1,1.4,21.9,6.5,22.6,8
			c0.9,1.8,1.7,3.8,2.1,6.9c0.8,4.5,2.1,15.3,1.4,31.7c-0.7,16.9-2.9,26.5-2.9,26c2.5-0.8,6.7-4.6,7-5.5c1.1-2.8,1.6-12.7,2-21.8
			c0.4-9.1-0.6-20.6-1.1-24.9C97.4,16.8,96.7,14,95.2,11.7z M33.4,82.3c-2.4,0-6.3-0.4-6.2-0.4l6.2-18l5.8,18
			C39.1,81.9,35.6,82.3,33.4,82.3z M64.4,81.9c0,0-3.8,0.4-6.2,0.4c-2.2,0-5.7-0.4-5.8-0.4l5.8-18L64.4,81.9z M48.5,67.9V61h5.4
			l-8.1,22.4l-8-22.4h5.4v4.9c0,0,0,0.5,0.2,0.5c0.7,0.4,0.9,0.4,0.9,0.4L48.5,67.9z M49.2,31.5h-9.3c-0.7-2.2,0-2.7,2-2.9
			C45.6,28.2,48.8,28.2,49.2,31.5z M75.3,21.7c3.4-0.5,1.8,5.5,0.9,7.8C75,26.6,74.1,25,72,22.3C73.2,21.9,74.1,21.9,75.3,21.7z"/>
		<path fill="#34679A" d="M15.1,71.4c1.6-1.7,7.4-7.6,8.2-10.7c1.1-3.8,2-12.9,2-14.9c0,0-5.7,3.8-8.6,6.9c-1.2,1.3-3,3.7-3,3.7
			c-0.5-3.2,0.2-6.9,1.6-9.1c2-3.1,8.9-9,9.8-11.4c1.5-3.9,1.3-7.3,2.5-11.5c-4.7,1.5-10.4,5.1-13.1,8c-0.4-4.6,1.1-7.9,4.1-10.2
			c4.4-3.3,10.2-5.3,14-6.3c3.2-1,8.5-2,11.1-3.3c4.9-2.4,9.5-9,10.6-12.4c-1.6,0-7.3-0.4-12.9,1.8c-2,0.8-3,2.7-3.9,4.2
			c-1,1.6-1.9,2.8-2.7,4c-2.3,3.5-5,5.1-8.6,6c0.1-0.3,2.3-1.6,3.9-5.1c1.3-2.8,3-8.7,3.1-9.1c-3,0.4-4.9,1.3-8.1,2.5
			c-3.4,1.4-4.4,2.7-5.2,4c-2.2,3.5-1.6,13.1-6.1,16.9c0.2-5.1,1.3-10.5-0.6-16.9C4,12,2.3,15.3,2.9,19.3c0.8,5.2,6.8,7.6,9.3,12
			c0.7,1.3,1.1,3.1,1.1,3.2c0.2,0-1.8,2.6-1.3,7.5c0,0-1.9-3.6-3.6-5.9c-2.7-3.5-8.1-9.1-8.1-9.1c-1.1,14.2,0.7,17,1.4,18.2
			c1.8,3,8.5,7.7,9.9,10.5c0.7,1.5,0.9,2,0.9,2c0.2,0.6-1.3,2.3-1,4.8c0.1,0.9,0.3,2,0.5,3.3c0,0-2-2.9-4.7-6
			c-2.5-2.9-7.4-6.2-7.3-6.2c-0.3,1.6,0.5,9.5,0.7,10.7c0.7,4,0.8,7.8,4.1,11.1c2.9,2.9,12.2,6.7,14.2,7.5c0,0-0.4-1.8-1.3-4.4
			C16.8,75.8,15.1,71.4,15.1,71.4z"/>
		<path fill="#34679A" d="M102.9,8.9h2.6c1.7,0,3.4,0.4,5,1.3c1.1,0.7,1.9,1.4,2.2,2.3c0.5,1.2,0.7,3.7,0.7,7.4v47.8
			c0,4.4-0.4,7.2-1.3,8.4c-1.4,1.8-3.6,2.7-6.7,2.7h-2.6v2h31.7v-2H132c-1.7,0-3.4-0.4-5-1.3c-1.2-0.7-1.9-1.4-2.3-2.3
			c-0.5-1.2-0.7-3.7-0.7-7.4V19.9c0-4.4,0.5-7.2,1.4-8.4c1.4-1.8,3.6-2.7,6.6-2.7h2.7v-2h-31.7V8.9z"/>
		<path fill="#34679A" d="M258.6,53.5c-1.4-2.7-3.3-5-5.8-7c-2.5-2-7.3-4.8-14.2-8.5c-8.5-4.6-13.9-8.2-16.1-10.9
			c-1.6-1.9-2.3-3.9-2.3-6.2c0-3,1.2-5.6,3.7-7.9s5.6-3.5,9.4-3.5c3.4,0,6.6,0.9,9.7,2.6c3.1,1.7,5.5,4,7.2,6.9
			c1.7,2.9,2.9,6.8,3.5,11.7h2V5.1h-2c-0.4,1.7-0.8,2.9-1.4,3.4c-0.6,0.6-1.4,0.8-2.3,0.8c-0.8,0-2.3-0.5-4.3-1.4
			c-4.4-1.9-8.6-2.9-12.5-2.9c-6.3,0-11.5,1.9-15.6,5.8c-4.1,3.8-6.1,8.4-6.1,13.7c0,3.1,0.7,5.9,2.1,8.4c1.4,2.5,3.4,4.9,6.1,7
			c2.7,2.1,7.2,4.9,13.5,8.5c6.3,3.6,10.2,5.9,11.6,7c2.1,1.6,3.7,3.3,4.7,5.2c1,1.9,1.5,3.7,1.5,5.5c0,3.3-1.3,6.1-4,8.5
			c-2.6,2.4-6.2,3.6-10.8,3.6c-3.9,0-7.6-0.9-10.8-2.6c-3.3-1.7-5.7-3.9-7.3-6.6c-1.6-2.6-2.9-6.6-3.8-11.9h-2v21.6
			c-3.1-0.7-4.9-1.6-7.1-2.9c-2.5-1.6-5.5-4.8-9-9.7l-15.3-21.2c6.2-1.4,10.8-3.7,13.8-7.1c3-3.4,4.5-7.3,4.5-11.9
			c0-4.3-1.3-7.9-3.9-11c-2.6-3.1-5.8-5.2-9.5-6.3s-9.5-1.7-17.4-1.7h-27v2h2.8c2.8,0,4.9,0.8,6.3,2.4c1,1.1,1.5,4,1.5,8.7v47.8
			c0,4.2-0.4,6.9-1.1,8c-1.3,2-3.6,3.1-6.7,3.1h-2.8v2h31.7v-2H170c-2.8,0-4.8-0.8-6.2-2.4c-1-1.1-1.5-4-1.5-8.7V46.3
			c0.6,0,1.1,0.1,1.7,0.1c0.5,0,1.1,0,1.5,0c1.2,0,2.7,0,4.5-0.1l25.1,34.6l17,0l0,0h2.4c0.2-0.8,0.5-1.4,0.8-1.7
			c0.5-0.6,1.2-0.8,2.2-0.8c0.9,0,3.2,0.6,6.7,1.7c3.6,1.1,5.9,1.8,7,2c1.9,0.3,3.9,0.5,6.1,0.5c6.8,0,12.4-2,16.8-6.1
			c4.4-4.1,6.5-8.9,6.5-14.5C260.6,59.1,259.9,56.2,258.6,53.5z M165.3,42.9c-0.3,0-0.7,0-1.3,0c-0.5,0-1.1,0-1.8,0V12
			c3.6-0.7,6.5-1,8.6-1c4.8,0,8.6,1.4,11.5,4.3c2.9,2.9,4.3,6.7,4.3,11.3c0,4.7-1.8,8.6-5.4,11.7C177.7,41.4,172.4,42.9,165.3,42.9z
			"/>
	</g>
</g>
<g>
</g>
<g>
</g>
<g>
</g>
<g>
</g>
<g>
</g>
<g>
</g>
</svg>
