<svg id="Thin_Drawings" data-name="Thin Drawings" xmlns="http://www.w3.org/2000/svg" xmlns:xlink="http://www.w3.org/1999/xlink" viewBox="0 0 1510 300"><defs><style>.cls-1,.cls-3,.cls-4,.cls-5{fill:none;}.cls-2{clip-path:url(#clip-path);}.cls-3,.cls-4,.cls-5{stroke:#00599c;stroke-miterlimit:10;}.cls-4{stroke-width:0.75px;}.cls-5{stroke-dasharray:2 2;}</style><clipPath id="clip-path"><rect class="cls-1" x="-0.5" y="0.5" width="1510" height="300"/></clipPath></defs><title>Ideas_Catalog_Header_Images_051617</title><g class="cls-2"><path class="cls-3" d="M49.08,115.31a10.37,10.37,0,1,0,10.37-10.37A10.39,10.39,0,0,0,49.08,115.31Z"/><path class="cls-3" d="M90.05,120.91l.06-.35a31.26,31.26,0,0,0,0-10.35l-.06-.38-7.14.05-.28-1a23.9,23.9,0,0,0-2-4.92l-.45-.83,4.8-5.5-.21-.29A31.31,31.31,0,0,0,77.54,90l-.31-.22-5,5.08-.91-.52a24,24,0,0,0-4.87-2.09l-.9-.27L65,84.71l-.35-.06a31.24,31.24,0,0,0-10.34,0l-.38.06L54,91.83l-1,.28a24,24,0,0,0-4.92,2l-.83.44-5.49-4.8-.29.21a31.27,31.27,0,0,0-7.33,7.3l-.22.31,5.08,5-.52.91a24,24,0,0,0-2.09,4.87l-.27.9-7.28.49-.06.35a31.27,31.27,0,0,0,0,10.34l.06.38,7.13-.05.28,1a23.93,23.93,0,0,0,2,4.92l.45.83L33.86,133l.21.29a31.29,31.29,0,0,0,7.3,7.33l.31.22,5-5.08.91.52a24,24,0,0,0,4.87,2.09l.9.27.49,7.28.35.06a31.27,31.27,0,0,0,10.35,0l.38-.06-.05-7.14,1-.28a23.91,23.91,0,0,0,4.92-2l.83-.45,5.49,4.8.29-.21a31.28,31.28,0,0,0,7.33-7.3l.22-.31-5.08-5,.52-.91a23.94,23.94,0,0,0,2.09-4.87l.27-.9Z"/><path class="cls-3" d="M44.8,115.31A14.66,14.66,0,1,0,49.09,105,14.56,14.56,0,0,0,44.8,115.31Z"/><path class="cls-3" d="M90.81,155.55l-.21-.47q-.15-.33-.32-.65a14,14,0,0,0-1.21-1.93l-.31-.41-4,1.8-.31-.28a9.39,9.39,0,0,0-1.37-1l-.36-.22.65-4.35-.48-.18a13.79,13.79,0,0,0-2.9-.75l-.5-.07-1.58,4.12-.42,0a9.55,9.55,0,0,0-1.7.24l-.41.1L72.72,148l-.47.21a13.9,13.9,0,0,0-2.58,1.53l-.41.3,1.8,4-.28.31a9.54,9.54,0,0,0-1,1.37l-.22.36-4.35-.65-.18.48a13.88,13.88,0,0,0-.75,2.9l-.07.5,4.12,1.57,0,.42a9.65,9.65,0,0,0,.24,1.7l.1.41L65.13,166l.21.47q.15.33.32.65a14,14,0,0,0,1.21,1.93l.31.41,4-1.8.31.28a9.75,9.75,0,0,0,1.38,1l.36.22-.65,4.35.48.18a14,14,0,0,0,2.9.75l.5.07,1.57-4.12.42,0a9.57,9.57,0,0,0,1.7-.25l.41-.1,2.62,3.53-.42.25a24.7,24.7,0,0,0,3.47-2l.41-.31-1.8-4,.28-.31a9.38,9.38,0,0,0,1-1.37l.22-.36,4.35.64.18-.48a14.24,14.24,0,0,0,.45-1.42,14,14,0,0,0,.3-1.48l.07-.5-4.12-1.57,0-.42a9.68,9.68,0,0,0-.25-1.7l-.1-.41Z"/><path class="cls-3" d="M132.24,87.8v.7c0,.46,0,.93-.06,1.39l0,.39,6.32,3.77-.12.47a25.18,25.18,0,0,1-3.67,8.09l-.28.4-7-2.31-.28.29c-.39.4-.8.79-1.23,1.15l-.3.26,1.8,7.13-.41.25a24.85,24.85,0,0,1-8.32,3.13l-.48.09-3.28-6.55h-.4c-.56,0-1.13,0-1.69-.05l-.39,0-3.77,6.31-.47-.12a25,25,0,0,1-8.09-3.67l-.4-.28,2.31-7-.29-.28c-.4-.39-.79-.8-1.15-1.23l-.26-.3-7.13,1.8-.25-.41a24.87,24.87,0,0,1-3.13-8.32l-.09-.48,6.55-3.28v-.69c0-.46,0-.93.06-1.39l0-.39-6.31-3.77.12-.46a25,25,0,0,1,3.67-8.09l.28-.4,7,2.31.28-.29c.39-.4.8-.79,1.23-1.15l.3-.26-1.79-7.13.41-.25A24.84,24.84,0,0,1,109.84,64l.48-.09,3.28,6.55h.4c.56,0,1.13,0,1.69.05l.39,0,3.77-6.31.47.12a25,25,0,0,1,8.1,3.67l.4.28-2.31,7,.29.28c.4.39.79.8,1.15,1.23l.26.3,7.13-1.8.25.41A24.87,24.87,0,0,1,138.7,84l.09.48Z"/><path class="cls-3" d="M718.81,16.55l-.21-.47q-.15-.33-.32-.65a14,14,0,0,0-1.21-1.93l-.31-.41-4,1.8-.31-.28a9.39,9.39,0,0,0-1.37-1l-.36-.22L711.34,9l-.48-.18a13.79,13.79,0,0,0-2.9-.75l-.5-.07-1.58,4.12-.42,0a9.55,9.55,0,0,0-1.7.24l-.41.1L700.72,9l-.47.21a13.9,13.9,0,0,0-2.58,1.53l-.41.3,1.8,4-.28.31a9.54,9.54,0,0,0-1,1.37l-.22.36-4.35-.65-.18.48a13.88,13.88,0,0,0-.75,2.9l-.07.5,4.12,1.57,0,.42a9.65,9.65,0,0,0,.24,1.7l.1.41L693.13,27l.21.47q.15.33.32.65a14,14,0,0,0,1.21,1.93l.31.41,4-1.8.31.28a9.75,9.75,0,0,0,1.38,1l.36.22-.65,4.35.48.18a14,14,0,0,0,2.9.75l.5.07,1.57-4.12.42,0a9.57,9.57,0,0,0,1.7-.25l.41-.1,2.62,3.53-.42.25a24.7,24.7,0,0,0,3.47-2l.41-.31-1.8-4,.28-.31a9.38,9.38,0,0,0,1-1.37l.22-.36,4.35.64.18-.48a14.24,14.24,0,0,0,.45-1.42,14,14,0,0,0,.3-1.48l.07-.5-4.12-1.57,0-.42a9.68,9.68,0,0,0-.25-1.7l-.1-.41Z"/><path class="cls-3" d="M650.12,36.36A10.37,10.37,0,1,0,661.41,27,10.39,10.39,0,0,0,650.12,36.36Z"/><path class="cls-3" d="M690.41,45.7l.09-.34a31.26,31.26,0,0,0,1-10.3l0-.38-7.11-.6-.18-1A23.9,23.9,0,0,0,682.64,28l-.37-.87,5.29-5-.18-.31a31.31,31.31,0,0,0-6.59-8l-.29-.25L675,18.13l-.86-.6A24,24,0,0,0,669.53,15l-.87-.35.18-7.29-.34-.09a31.24,31.24,0,0,0-10.3-1l-.38,0-.6,7.11-1,.18a24,24,0,0,0-5.08,1.51l-.87.37-5-5.29-.31.18a31.27,31.27,0,0,0-8,6.59l-.25.29,4.6,5.45-.6.86a24,24,0,0,0-2.53,4.66l-.35.87-7.29-.18-.09.34a31.27,31.27,0,0,0-1,10.3l0,.38,7.11.6.18,1a23.93,23.93,0,0,0,1.51,5.08l.37.87-5.29,5,.18.31a31.29,31.29,0,0,0,6.59,8l.29.25,5.45-4.6.86.6a24,24,0,0,0,4.66,2.53l.87.35-.18,7.29.34.09a31.27,31.27,0,0,0,10.3,1l.38,0,.6-7.11,1-.18a23.91,23.91,0,0,0,5.08-1.51l.87-.37,5,5.29.31-.18a31.28,31.28,0,0,0,8-6.59l.25-.29-4.6-5.46.6-.86a23.94,23.94,0,0,0,2.53-4.66l.35-.87Z"/><path class="cls-3" d="M645.86,36A14.66,14.66,0,1,0,651.09,26,14.56,14.56,0,0,0,645.86,36Z"/><path class="cls-3" d="M599.41,14.65A16.25,16.25,0,1,0,583.16,30.9,16.26,16.26,0,0,0,599.41,14.65Z"/><path class="cls-3" d="M535.25,5.89l-.09.55a49,49,0,0,0,0,16.2l.1.59,11.18-.08.44,1.58a37.42,37.42,0,0,0,3.09,7.7l.7,1.3-7.52,8.6.32.45a49,49,0,0,0,11.43,11.48l.49.35,7.84-8,1.42.81a37.62,37.62,0,0,0,7.63,3.27l1.41.43.77,11.4.55.09a48.93,48.93,0,0,0,16.2,0l.59-.1-.08-11.17,1.58-.44a37.57,37.57,0,0,0,7.71-3.09l1.3-.7,8.6,7.52.45-.32A49,49,0,0,0,622.78,43l.35-.49-8-7.84.81-1.42a37.5,37.5,0,0,0,3.27-7.63l.43-1.41,11.4-.77.09-.55a49,49,0,0,0,0-16.2l-.1-.59-11.17.08-.44-1.58a37.47,37.47,0,0,0-3.09-7.71l-.7-1.3,7.52-8.6-.32-.45A49,49,0,0,0,611.49-25l-.49-.35-7.84,8-1.42-.81a37.55,37.55,0,0,0-7.63-3.27l-1.41-.43-.77-11.4-.55-.09a49,49,0,0,0-16.2,0l-.59.1.08,11.18-1.58.44a37.45,37.45,0,0,0-7.7,3.09l-1.3.7-8.6-7.52-.45.32a49,49,0,0,0-11.48,11.43l-.35.49,8,7.84-.81,1.42a37.5,37.5,0,0,0-3.27,7.63l-.43,1.41Z"/><path class="cls-3" d="M606.11,14.65A22.94,22.94,0,1,0,574.23,35.8a23,23,0,0,0,31.88-21.15Z"/><path class="cls-3" d="M519.37,53.39a5.1,5.1,0,1,0-1.7-3.81A5.07,5.07,0,0,0,519.37,53.39Z"/><path class="cls-3" d="M515.54,49.59A7.23,7.23,0,1,1,517.95,55,7.22,7.22,0,0,1,515.54,49.59Z"/><path class="cls-3" d="M507.48,48.22l0,.57q0,.4,0,.8a15.48,15.48,0,0,0,.21,2.51l.09.56,4.88.28.16.44a10.39,10.39,0,0,0,.82,1.71l.24.4L511,59.43l.38.42a15.25,15.25,0,0,0,2.47,2.21l.46.33,3.65-3.25.42.19a10.57,10.57,0,0,0,1.8.62l.46.11.78,4.8.57,0a15.39,15.39,0,0,0,3.31-.19l.56-.09.28-4.87.44-.16a10.55,10.55,0,0,0,1.71-.82l.4-.24,3.95,2.85L533,61a15.36,15.36,0,0,0,2.21-2.47l.33-.46-3.25-3.64.19-.42a10.67,10.67,0,0,0,.63-1.8l.11-.46,4.8-.78,0-.57q0-.4,0-.8a15.52,15.52,0,0,0-.21-2.51l-.09-.56-4.87-.28-.16-.43A10.79,10.79,0,0,0,532,44.1l-.24-.4,2.85-3.95-.38-.42a15.46,15.46,0,0,0-2.47-2.21l-.46-.33L527.6,40l-.42-.19a10.59,10.59,0,0,0-1.8-.62l-.46-.11-.78-4.81-.57,0a15.4,15.4,0,0,0-3.31.18l-.56.09-.28,4.88-.44.16a10.37,10.37,0,0,0-1.71.82l-.4.24-4-2.85-.42.38a15.75,15.75,0,0,0-1.17,1.17,15.48,15.48,0,0,0-1,1.3l-.33.46,3.25,3.64-.19.42a10.71,10.71,0,0,0-.62,1.8l-.11.46Z"/><path class="cls-3" d="M534.65,85v-.78c0-.51,0-1,.06-1.53l0-.44-7-4.18.13-.52a27.86,27.86,0,0,1,4.06-9l.3-.44,7.7,2.56.31-.32c.43-.44.89-.87,1.36-1.28l.33-.28L540,61l.46-.27a27.5,27.5,0,0,1,9.21-3.46l.53-.1,3.63,7.25h.44c.62,0,1.25,0,1.87.06l.44,0,4.18-7,.51.13a27.62,27.62,0,0,1,9,4.06l.44.3-2.56,7.7.32.31c.44.43.87.89,1.28,1.36l.28.33,7.89-2,.27.46a27.52,27.52,0,0,1,3.46,9.21l.1.53-7.25,3.63v.77c0,.51,0,1-.06,1.54l0,.44,7,4.18-.13.51a27.64,27.64,0,0,1-4.06,9l-.3.44-7.7-2.56-.31.32c-.43.44-.89.87-1.36,1.28l-.33.28,2,7.89-.46.27a27.49,27.49,0,0,1-9.21,3.46l-.53.1-3.63-7.25h-.44c-.62,0-1.25,0-1.87-.06l-.44,0-4.17,7-.51-.13a27.7,27.7,0,0,1-9-4.06l-.44-.3,2.56-7.7-.32-.31c-.44-.43-.87-.89-1.28-1.36l-.28-.33-7.89,2-.27-.46a27.52,27.52,0,0,1-3.46-9.21l-.1-.53Z"/><path class="cls-3" d="M542.94,84.25a11.59,11.59,0,0,1,16.38-10.54,11.61,11.61,0,0,1,6.79,10.55A11.58,11.58,0,0,1,549.74,94.8,11.61,11.61,0,0,1,542.94,84.25Z"/><path class="cls-4" d="M474.09,34a.08.08,0,0,1-.07-.08v0s0,0,0-.06a11.9,11.9,0,0,0-22.22-5.94.08.08,0,0,1-.07,0h0a.08.08,0,0,1,0-.11,12.06,12.06,0,0,1,10.46-6A12.07,12.07,0,0,1,474.18,33.8s0,0,0,.06,0,0,0,.05a.08.08,0,0,1-.08.07Z"/><path class="cls-4" d="M454.77,59.16a1.84,1.84,0,0,1,0-3.69h14.67a1.84,1.84,0,1,1,0,3.69Zm0-3.52a1.68,1.68,0,0,0,0,3.36h14.67a1.68,1.68,0,1,0,0-3.36Z"/><path class="cls-4" d="M469.45,59.07A1.76,1.76,0,0,0,470,59c0,.07,0,.14,0,.21A1.76,1.76,0,0,0,469.45,59.07Z"/><path class="cls-4" d="M469.45,59.07A1.76,1.76,0,0,0,470,59c0,.07,0,.14,0,.21A1.76,1.76,0,0,0,469.45,59.07Z"/><path class="cls-4" d="M454.18,59.18c0-.07,0-.14,0-.21a1.76,1.76,0,0,0,.59.1A1.76,1.76,0,0,0,454.18,59.18Z"/><path class="cls-4" d="M454.18,59.18c0-.07,0-.14,0-.21a1.76,1.76,0,0,0,.59.1A1.76,1.76,0,0,0,454.18,59.18Z"/><path class="cls-4" d="M462.11,66.79a7.44,7.44,0,0,1-6.4-3.67h.19a7.25,7.25,0,0,0,12.42,0h.19A7.44,7.44,0,0,1,462.11,66.79Z"/><path class="cls-4" d="M454.77,62.68a1.84,1.84,0,0,1,0-3.69h14.67a1.84,1.84,0,1,1,0,3.69Zm0-3.52a1.68,1.68,0,0,0,0,3.36h14.67a1.68,1.68,0,1,0,0-3.36Z"/><path class="cls-4" d="M453.23,52.57a.07.07,0,0,1-.07,0,33.86,33.86,0,0,0-5.15-7c-.89-1-1.73-2-2.41-2.89a16.8,16.8,0,0,1-2-5.12,18.89,18.89,0,0,1-.62-4.15,17.35,17.35,0,0,1,1.52-7.12,18.14,18.14,0,0,1,4.12-5.79,19.19,19.19,0,0,1,6.09-3.89,20.15,20.15,0,0,1,14.87,0,19.18,19.18,0,0,1,6.09,3.89,18.15,18.15,0,0,1,4.12,5.79,17.36,17.36,0,0,1,1.52,7.12,17.65,17.65,0,0,1-5.14,12.39l-.6.6-.07.07a42.16,42.16,0,0,0-3.61,3.79,19.45,19.45,0,0,0-1.19,1.87.08.08,0,0,1-.07,0h0a.08.08,0,0,1,0-.1,19.58,19.58,0,0,1,1.2-1.89c.44-.62,2.67-2.86,3.62-3.81l0,0,.62-.62a17.5,17.5,0,0,0,5.1-12.29,17.21,17.21,0,0,0-1.51-7.06,18,18,0,0,0-4.09-5.75,19,19,0,0,0-6-3.86,20,20,0,0,0-14.76,0,19,19,0,0,0-6,3.86,18,18,0,0,0-4.09,5.75,17.2,17.2,0,0,0-1.51,7.06,18.75,18.75,0,0,0,.62,4.11,17.75,17.75,0,0,0,2,5.07c.67.89,1.51,1.86,2.4,2.88a34,34,0,0,1,5.18,7.07.08.08,0,0,1,0,.1Z"/><path class="cls-4" d="M464.35,51.51l2-9.89-.55-.07a5.46,5.46,0,0,1-2.21-.82,3.09,3.09,0,0,1-1-1.17l-.46-.84-.46.84a3.09,3.09,0,0,1-1,1.17,5.46,5.46,0,0,1-2.21.82l-.55.07,2,9.89h-.17l-2-9.91-.38,0a4,4,0,0,1-1.83-.63,1.92,1.92,0,0,1-.94-1.92,1.34,1.34,0,0,1,1.05-1.16,1.57,1.57,0,0,1,.32,0,1.47,1.47,0,0,1,1.18.52,3.82,3.82,0,0,1,.42,1.5v0l.32,1.56.47-.05a5.25,5.25,0,0,0,2.24-.8A4.15,4.15,0,0,0,462,38.28l0-.12,0-.17a.08.08,0,0,1,.07-.1h.11a.08.08,0,0,1,.06.1v0l0,.13,0,.12a4.18,4.18,0,0,0,1.45,2.32,5.25,5.25,0,0,0,2.24.8l.47.05.32-1.56v0a3.84,3.84,0,0,1,.42-1.5,1.47,1.47,0,0,1,1.18-.52,1.57,1.57,0,0,1,.32,0A1.34,1.34,0,0,1,469.68,39a1.92,1.92,0,0,1-.95,1.92,4,4,0,0,1-1.83.63l-.38,0-2,9.91Zm4-13.52a1.32,1.32,0,0,0-1,.45,4.13,4.13,0,0,0-.4,1.45h0l-.32,1.58.76-.15a3.62,3.62,0,0,0,1.33-.53,1.74,1.74,0,0,0,.88-1.75,1.18,1.18,0,0,0-.93-1Zm-12.4,0-.28,0a1.18,1.18,0,0,0-.93,1,1.74,1.74,0,0,0,.88,1.75,3.62,3.62,0,0,0,1.33.53l.76.15-.32-1.58h0a4.18,4.18,0,0,0-.4-1.45A1.34,1.34,0,0,0,455.91,38Z"/><path class="cls-4" d="M454.77,55.63a1.84,1.84,0,0,1,0-3.69h14.67a1.84,1.84,0,1,1,0,3.69Zm0-3.52a1.68,1.68,0,0,0,0,3.36h14.67a1.68,1.68,0,1,0,0-3.36Z"/><line class="cls-5" x1="603.27" y1="85.21" x2="858.05" y2="85.21"/><line class="cls-5" x1="613.93" y1="157.5" x2="613.93" y2="72.3"/><path class="cls-5" d="M391.42,32.28S360.07,58.66,309,51.72c-52.72-7.16-94.12-62.38-94.12-62.38"/><polyline class="cls-3" points="385.41 27.81 395.79 28.49 394.69 38.23"/><path class="cls-3" d="M120.88-2.25a14.68,14.68,0,1,0,14.68,14.68A14.7,14.7,0,0,0,120.88-2.25Z"/><path class="cls-3" d="M113,55.73l.49.08a44.24,44.24,0,0,0,14.64,0l.54-.09-.07-10.1,1.43-.39a33.82,33.82,0,0,0,7-2.79l1.17-.63,7.78,6.8.41-.29A44.3,44.3,0,0,0,156.68,38l.32-.44-7.2-7.09.73-1.29a34,34,0,0,0,3-6.9l.39-1.27,10.3-.69.08-.5a44.22,44.22,0,0,0,0-14.64l-.09-.54-10.1.08-.39-1.42a34,34,0,0,0-2.79-7l-.63-1.17,6.8-7.77L156.8-13a44.25,44.25,0,0,0-10.33-10.38l-.44-.32-7.09,7.19-1.29-.73a33.89,33.89,0,0,0-6.9-3l-1.27-.39-.69-10.3-.5-.08a44.25,44.25,0,0,0-14.64,0l-.54.09.08,10.1-1.42.39a33.86,33.86,0,0,0-7,2.79l-1.18.63-7.78-6.8-.41.29A44.29,44.29,0,0,0,85.07-13.17l-.32.44,7.19,7.09-.73,1.29a33.93,33.93,0,0,0-3,6.9l-.39,1.28-10.3.69-.08.5a44.26,44.26,0,0,0,0,14.64l.09.54,10.1-.08L88,21.53a33.84,33.84,0,0,0,2.79,7l.63,1.18-6.8,7.78.29.41A44.26,44.26,0,0,0,95.28,48.23l.44.32,7.09-7.2,1.29.73A33.89,33.89,0,0,0,111,45l1.28.39Z"/><path class="cls-3" d="M120.88-8.31a20.74,20.74,0,0,0-20.74,20.74,20.74,20.74,0,1,0,35.4-14.66A20.6,20.6,0,0,0,120.88-8.31Z"/><path class="cls-3" d="M159.89,72.08a4.61,4.61,0,1,0-3.44,1.54A4.58,4.58,0,0,0,159.89,72.08Z"/><path class="cls-3" d="M155.21,82.82l.51,0,.72,0a14,14,0,0,0,2.27-.19l.5-.08.25-4.41.39-.15a9.39,9.39,0,0,0,1.55-.74l.36-.22,3.57,2.57.38-.34a13.79,13.79,0,0,0,2-2.24l.3-.41-2.94-3.29.17-.38a9.55,9.55,0,0,0,.56-1.62l.1-.41,4.34-.7,0-.51a13.9,13.9,0,0,0-.17-3l-.08-.5L165.64,66l-.15-.39a9.54,9.54,0,0,0-.74-1.55l-.22-.36,2.57-3.57-.34-.38a13.88,13.88,0,0,0-2.24-2l-.41-.3-3.29,2.94-.38-.17a9.65,9.65,0,0,0-1.62-.57l-.41-.1-.7-4.34-.51,0-.73,0a14,14,0,0,0-2.27.19l-.5.08-.25,4.41L153,60a9.75,9.75,0,0,0-1.55.75l-.36.22-3.57-2.57-.38.34a14,14,0,0,0-2,2.24l-.3.41,2.94,3.29-.17.38a9.57,9.57,0,0,0-.56,1.62l-.1.41-4.34.7,0,.51a13.92,13.92,0,0,0,.17,3l.08.5,4.41.25.15.39a9.38,9.38,0,0,0,.74,1.54l.22.36L145.8,77.9l.34.38a14.24,14.24,0,0,0,1.06,1.05,14,14,0,0,0,1.18.95l.41.3,3.29-2.94.38.17a9.68,9.68,0,0,0,1.62.56l.41.1Z"/><path class="cls-3" d="M188.45,58.27h-.7c-.46,0-.93,0-1.39-.06l-.39,0-3.77,6.32-.47-.12a25.18,25.18,0,0,1-8.09-3.67l-.4-.28,2.31-7-.29-.28c-.4-.39-.79-.8-1.15-1.23l-.26-.3-7.13,1.8-.25-.41a24.85,24.85,0,0,1-3.13-8.32l-.09-.48L169.82,41v-.4c0-.56,0-1.13.05-1.69l0-.39-6.31-3.77.12-.47a25,25,0,0,1,3.67-8.09l.28-.4,7,2.31.28-.29c.39-.4.8-.79,1.23-1.15l.3-.26-1.8-7.13L175,19a24.87,24.87,0,0,1,8.32-3.13l.48-.09,3.28,6.55h.69c.46,0,.93,0,1.39.06l.39,0,3.77-6.31.46.12a25,25,0,0,1,8.09,3.67l.4.28-2.31,7,.29.28c.4.39.79.8,1.15,1.23l.26.3,7.13-1.79.25.41a24.84,24.84,0,0,1,3.13,8.32l.09.48-6.55,3.28V40c0,.56,0,1.13-.05,1.69l0,.39L212,45.89l-.12.47a25,25,0,0,1-3.67,8.1l-.28.4-7-2.31-.28.29c-.39.4-.8.79-1.23,1.15l-.3.26,1.8,7.13-.41.25a24.87,24.87,0,0,1-8.32,3.13l-.48.09Z"/><path class="cls-3" d="M187.77,50.78A10.47,10.47,0,0,1,178.25,36a10.5,10.5,0,0,1,9.54-6.14,10.47,10.47,0,0,1,9.52,14.8A10.49,10.49,0,0,1,187.77,50.78Z"/></g></svg>