<svg id="Thin_Drawings" data-name="Thin Drawings" xmlns="http://www.w3.org/2000/svg" xmlns:xlink="http://www.w3.org/1999/xlink" viewBox="0 0 1445 360"><defs><style>.cls-1,.cls-10,.cls-3,.cls-5,.cls-6,.cls-7,.cls-8,.cls-9{fill:none;}.cls-2{clip-path:url(#clip-path);}.cls-10,.cls-3,.cls-5,.cls-6,.cls-7,.cls-8,.cls-9{stroke:#00599c;stroke-miterlimit:10;}.cls-4{fill:#00599c;}.cls-5{stroke-width:0.75px;}.cls-6{stroke-dasharray:2.01 3.01;}.cls-7{stroke-dasharray:2.03 3.04;}.cls-8{stroke-dasharray:2 3;}.cls-9{stroke-dasharray:1.99 2.98;}.cls-10{stroke-dasharray:2.02 3.02;}</style><clipPath id="clip-path"><rect class="cls-1" width="1445" height="360"/></clipPath></defs><title>Ideas_Catalog_Header_Images_051617</title><g class="cls-2"><path class="cls-3" d="M1016.67-3.37a23,23,0,1,0,23,23A23.07,23.07,0,0,0,1016.67-3.37Z"/><path class="cls-3" d="M1004.24,87.65l.78.13a69.44,69.44,0,0,0,23,.05l.84-.14-.12-15.85,2.24-.62a53.08,53.08,0,0,0,10.93-4.38l1.84-1,12.21,10.67.64-.46a69.54,69.54,0,0,0,16.29-16.21l.5-.69L1062.08,48l1.15-2a53.36,53.36,0,0,0,4.64-10.82l.61-2,16.17-1.09.13-.78a69.4,69.4,0,0,0,.05-23l-.14-.84-15.85.12-.62-2.24a53.29,53.29,0,0,0-4.38-10.93l-1-1.84,10.67-12.2-.46-.64a69.45,69.45,0,0,0-16.21-16.29l-.7-.5L1045-25.72l-2-1.15a53.19,53.19,0,0,0-10.82-4.64l-2-.61-1.09-16.17-.78-.13a69.46,69.46,0,0,0-23-.05l-.84.14.12,15.85-2.24.62a53.15,53.15,0,0,0-10.93,4.38l-1.84,1L977.4-37.16l-.64.46A69.51,69.51,0,0,0,960.47-20.5l-.5.69L971.27-8.68l-1.15,2a53.26,53.26,0,0,0-4.64,10.82l-.61,2L948.7,7.25l-.13.78a69.46,69.46,0,0,0-.05,23l.14.84,15.85-.12.62,2.24a53.12,53.12,0,0,0,4.38,10.93l1,1.84L959.83,58.95l.46.64a69.48,69.48,0,0,0,16.21,16.29l.69.5,11.13-11.29,2,1.15a53.19,53.19,0,0,0,10.82,4.64l2,.61Z"/><path class="cls-3" d="M1016.67-12.87a32.55,32.55,0,0,0-32.55,32.55,32.55,32.55,0,1,0,55.57-23A32.34,32.34,0,0,0,1016.67-12.87Z"/><path class="cls-4" d="M1066.23,99.1a6.24,6.24,0,1,1-4.65,2.08,6.22,6.22,0,0,1,4.65-2.08m0-1a7.24,7.24,0,1,0,4.82,1.85,7.25,7.25,0,0,0-4.82-1.85Z"/><path class="cls-3" d="M1066.23,115.61a10.26,10.26,0,1,1,7.65-3.42A10.25,10.25,0,0,1,1066.23,115.61Z"/><path class="cls-3" d="M1064.29,127l.81,0q.57,0,1.14,0a22,22,0,0,0,3.56-.29l.79-.13.4-6.92.62-.23a14.74,14.74,0,0,0,2.43-1.17l.57-.35,5.6,4,.6-.54a21.64,21.64,0,0,0,3.14-3.51l.47-.65-4.61-5.17.27-.6a15,15,0,0,0,.89-2.55l.16-.65,6.81-1.1,0-.81a21.83,21.83,0,0,0-.27-4.7l-.13-.79-6.92-.4-.23-.62a15,15,0,0,0-1.17-2.43l-.34-.57,4-5.6-.54-.6a21.78,21.78,0,0,0-3.51-3.14l-.65-.47-5.17,4.61-.6-.27a15.14,15.14,0,0,0-2.55-.89l-.65-.16-1.1-6.81-.81,0q-.57,0-1.14,0a22,22,0,0,0-3.56.29l-.79.13-.4,6.91-.62.23a15.3,15.3,0,0,0-2.44,1.17l-.57.34-5.6-4-.6.54a21.93,21.93,0,0,0-3.14,3.51l-.47.65,4.61,5.17-.27.6a15,15,0,0,0-.88,2.55l-.16.65-6.82,1.1,0,.81a21.85,21.85,0,0,0,.26,4.7l.13.79,6.92.4.23.62a14.72,14.72,0,0,0,1.17,2.42l.34.57-4,5.6.54.6a22.35,22.35,0,0,0,1.66,1.65,22,22,0,0,0,1.85,1.48l.65.47,5.17-4.61.6.27a15.2,15.2,0,0,0,2.55.89l.65.16Z"/><path class="cls-3" d="M1116.46,88.5l-1.1,0c-.72,0-1.46,0-2.18-.09l-.62,0-5.92,9.91-.73-.19a39.52,39.52,0,0,1-12.7-5.76l-.62-.43L1096.21,81l-.45-.44c-.63-.61-1.24-1.26-1.81-1.93l-.4-.47L1082.35,81l-.39-.65a39,39,0,0,1-4.91-13.06l-.14-.75,10.28-5.15v-.63c0-.88,0-1.77.08-2.65l0-.62-9.91-5.92.18-.73a39.18,39.18,0,0,1,5.76-12.7l.43-.62,10.92,3.63.44-.45c.61-.63,1.26-1.24,1.93-1.81l.47-.4-2.82-11.19.65-.39A39,39,0,0,1,1108.45,22l.75-.14,5.15,10.28h1.09c.73,0,1.46,0,2.19.09l.62,0,5.92-9.91.73.18a39.2,39.2,0,0,1,12.7,5.76l.63.43-3.63,10.92.45.44c.63.61,1.24,1.26,1.81,1.93l.4.47,11.19-2.82.39.65a39,39,0,0,1,4.91,13.06l.14.75-10.28,5.15v.63c0,.88,0,1.78-.08,2.65l0,.62,9.91,5.92-.18.73a39.29,39.29,0,0,1-5.76,12.71l-.43.62-10.92-3.63-.44.45c-.61.63-1.26,1.24-1.93,1.81l-.47.4,2.82,11.19-.65.39a39,39,0,0,1-13.06,4.91l-.75.14Z"/><path class="cls-3" d="M1115.39,76.74a16.43,16.43,0,0,1-14.95-23.23,16.48,16.48,0,0,1,15-9.64,16.43,16.43,0,0,1,14.95,23.23A16.47,16.47,0,0,1,1115.39,76.74Z"/><path class="cls-5" d="M908.7,53.52a.13.13,0,0,1-.12-.13v-.07s0-.06,0-.09a18.68,18.68,0,0,0-34.87-9.33.13.13,0,0,1-.11.07l-.06,0a.13.13,0,0,1,0-.18,18.93,18.93,0,0,1,16.41-9.48,18.94,18.94,0,0,1,18.94,18.94s0,.06,0,.1,0,.05,0,.08a.13.13,0,0,1-.13.12Z"/><path class="cls-5" d="M878.39,93a2.89,2.89,0,0,1,0-5.79h23a2.89,2.89,0,1,1,0,5.79Zm0-5.53a2.63,2.63,0,0,0,0,5.27h23a2.63,2.63,0,1,0,0-5.27Z"/><path class="cls-5" d="M901.42,92.89a2.76,2.76,0,0,0,.93-.16c0,.11,0,.22,0,.32A2.76,2.76,0,0,0,901.42,92.89Z"/><path class="cls-5" d="M901.42,92.89a2.76,2.76,0,0,0,.93-.16c0,.11,0,.22,0,.32A2.76,2.76,0,0,0,901.42,92.89Z"/><path class="cls-5" d="M877.45,93.06c0-.11,0-.22,0-.32a2.76,2.76,0,0,0,.93.16A2.76,2.76,0,0,0,877.45,93.06Z"/><path class="cls-5" d="M877.45,93.06c0-.11,0-.22,0-.32a2.76,2.76,0,0,0,.93.16A2.76,2.76,0,0,0,877.45,93.06Z"/><path class="cls-5" d="M889.9,105a11.67,11.67,0,0,1-10-5.76h.3a11.38,11.38,0,0,0,19.49,0h.3A11.67,11.67,0,0,1,889.9,105Z"/><path class="cls-5" d="M878.39,98.55a2.89,2.89,0,0,1,0-5.79h23a2.89,2.89,0,1,1,0,5.79Zm0-5.53a2.63,2.63,0,0,0,0,5.27h23a2.63,2.63,0,1,0,0-5.27Z"/><path class="cls-5" d="M876,82.69a.12.12,0,0,1-.11-.07c-1.84-3.87-5.15-7.67-8.08-11-1.4-1.61-2.72-3.12-3.79-4.54-1.47-2-2.7-6-3.19-8a29.66,29.66,0,0,1-1-6.51,27.23,27.23,0,0,1,2.38-11.18,28.47,28.47,0,0,1,6.47-9.09,30.11,30.11,0,0,1,9.56-6.1,31.62,31.62,0,0,1,23.34,0,30.11,30.11,0,0,1,9.56,6.1,28.48,28.48,0,0,1,6.47,9.09A27.24,27.24,0,0,1,920,52.5,27.7,27.7,0,0,1,911.92,72l-.94.94-.1.1c-5,5-5.49,5.71-5.66,5.95a30.54,30.54,0,0,0-1.87,2.94.12.12,0,0,1-.11.06h-.06a.12.12,0,0,1,0-.16,30.73,30.73,0,0,1,1.88-3c.69-1,4.19-4.48,5.69-6l.07-.07,1-1a27.47,27.47,0,0,0,8-19.29,27,27,0,0,0-2.36-11.08,28.25,28.25,0,0,0-6.42-9,29.88,29.88,0,0,0-9.48-6.05,31.39,31.39,0,0,0-23.16,0,29.88,29.88,0,0,0-9.48,6.05,28.24,28.24,0,0,0-6.42,9,27,27,0,0,0-2.36,11.08A29.44,29.44,0,0,0,861,59c.05.22,1.34,5.55,3.15,8,1.06,1.4,2.38,2.92,3.77,4.52,2.94,3.38,6.27,7.2,8.12,11.09a.12.12,0,0,1-.06.16Z"/><path class="cls-5" d="M893.42,81l3.15-15.52-.87-.11a8.57,8.57,0,0,1-3.47-1.28,4.85,4.85,0,0,1-1.6-1.84L889.9,61l-.72,1.31a4.86,4.86,0,0,1-1.6,1.84,8.57,8.57,0,0,1-3.47,1.28l-.87.11L886.39,81h-.26L883,65.47l-.6-.06a6.29,6.29,0,0,1-2.87-1,3,3,0,0,1-1.48-3,2.11,2.11,0,0,1,1.65-1.82,2.46,2.46,0,0,1,.5-.05,2.31,2.31,0,0,1,1.85.82,6,6,0,0,1,.66,2.36v0l.5,2.45.74-.08a8.25,8.25,0,0,0,3.52-1.25,6.52,6.52,0,0,0,2.27-3.63l.05-.19-.06-.27a.13.13,0,0,1,.1-.15H890a.13.13,0,0,1,.1.15v.07l0,.2.05.19a6.56,6.56,0,0,0,2.27,3.63,8.24,8.24,0,0,0,3.52,1.25l.74.08.5-2.45v0a6,6,0,0,1,.66-2.36,2.31,2.31,0,0,1,1.85-.82,2.47,2.47,0,0,1,.5.05,2.11,2.11,0,0,1,1.66,1.82,3,3,0,0,1-1.48,3,6.29,6.29,0,0,1-2.87,1l-.6.06L893.68,81Zm6.22-21.22a2.08,2.08,0,0,0-1.64.71,6.49,6.49,0,0,0-.62,2.28v0l-.5,2.47,1.2-.24a5.68,5.68,0,0,0,2.09-.84,2.73,2.73,0,0,0,1.37-2.75,1.85,1.85,0,0,0-1.45-1.62A2.22,2.22,0,0,0,899.64,59.8Zm-19.46,0a2.19,2.19,0,0,0-.44,0,1.85,1.85,0,0,0-1.46,1.62,2.73,2.73,0,0,0,1.37,2.75,5.68,5.68,0,0,0,2.09.84l1.2.24-.5-2.48v0a6.56,6.56,0,0,0-.62-2.28A2.1,2.1,0,0,0,880.17,59.8Z"/><path class="cls-5" d="M878.39,87.5a2.89,2.89,0,0,1,0-5.79h23a2.89,2.89,0,1,1,0,5.79Zm0-5.53a2.63,2.63,0,0,0,0,5.27h23a2.63,2.63,0,1,0,0-5.27Z"/><path class="cls-3" d="M441.86,246.06a23,23,0,1,0-23-23A23.07,23.07,0,0,0,441.86,246.06Z"/><path class="cls-3" d="M454.28,155l-.78-.13a69.44,69.44,0,0,0-23-.05l-.84.14.12,15.85-2.24.62a53.08,53.08,0,0,0-10.93,4.38l-1.84,1-12.21-10.67-.64.46a69.54,69.54,0,0,0-16.29,16.21l-.5.69,11.29,11.13-1.15,2a53.36,53.36,0,0,0-4.64,10.82l-.61,2-16.17,1.09-.13.78a69.4,69.4,0,0,0-.05,23l.14.84,15.85-.12.62,2.24a53.29,53.29,0,0,0,4.38,10.93l1,1.84L385,262.29l.46.64a69.45,69.45,0,0,0,16.21,16.29l.7.5,11.12-11.29,2,1.15a53.19,53.19,0,0,0,10.82,4.64l2,.61L429.43,291l.78.13a69.46,69.46,0,0,0,23,.05L454,291l-.12-15.85,2.24-.62a53.15,53.15,0,0,0,10.93-4.38l1.84-1,12.2,10.67.64-.46a69.51,69.51,0,0,0,16.29-16.21l.5-.69-11.29-11.12,1.15-2A53.26,53.26,0,0,0,493,238.53l.61-2,16.17-1.09.13-.78a69.46,69.46,0,0,0,.05-23l-.14-.84L494,211l-.62-2.24A53.12,53.12,0,0,0,489,197.8L488,196l10.67-12.21-.46-.64A69.48,69.48,0,0,0,482,166.82l-.69-.5-11.13,11.29-2-1.15a53.19,53.19,0,0,0-10.82-4.64l-2-.61Z"/><path class="cls-3" d="M441.86,255.57a32.56,32.56,0,1,0-23-9.53A32.34,32.34,0,0,0,441.86,255.57Z"/><path class="cls-4" d="M392.3,131.12a6.24,6.24,0,1,1-4.65,2.08,6.23,6.23,0,0,1,4.65-2.08m0-1a7.24,7.24,0,1,0,4.82,1.84,7.25,7.25,0,0,0-4.82-1.84Z"/><path class="cls-3" d="M392.3,127.09a10.26,10.26,0,1,1-7.65,3.42A10.25,10.25,0,0,1,392.3,127.09Z"/><path class="cls-3" d="M394.24,115.67l-.81,0q-.57,0-1.14,0a22,22,0,0,0-3.56.29l-.79.13-.4,6.92-.62.23a14.74,14.74,0,0,0-2.43,1.17l-.57.35-5.6-4-.6.54a21.64,21.64,0,0,0-3.14,3.51l-.47.65,4.61,5.17-.27.6a15,15,0,0,0-.89,2.55l-.16.65-6.81,1.1,0,.81a21.83,21.83,0,0,0,.27,4.7l.13.79,6.92.4.23.62a15,15,0,0,0,1.17,2.43l.34.57-4,5.6.54.6a21.78,21.78,0,0,0,3.51,3.14l.65.47,5.17-4.61.6.27a15.14,15.14,0,0,0,2.55.89l.65.16,1.1,6.81.81,0q.57,0,1.14,0a22,22,0,0,0,3.56-.29l.79-.13.4-6.91.62-.23a15.3,15.3,0,0,0,2.44-1.17l.57-.34,5.6,4,.6-.54A21.93,21.93,0,0,0,410,150l.47-.65-4.61-5.17.27-.6a15,15,0,0,0,.88-2.55l.16-.65,6.82-1.1,0-.81a21.85,21.85,0,0,0-.26-4.7l-.13-.79-6.92-.4-.23-.62a14.72,14.72,0,0,0-1.17-2.42L405,129l4-5.6-.54-.6a22.35,22.35,0,0,0-1.66-1.65,22,22,0,0,0-1.85-1.48l-.65-.47-5.17,4.61-.6-.27a15.19,15.19,0,0,0-2.55-.89l-.65-.16Z"/><path class="cls-3" d="M342.07,154.2l1.1,0c.72,0,1.46,0,2.18.09l.62,0,5.92-9.91.73.19a39.52,39.52,0,0,1,12.7,5.76l.63.43-3.63,10.92.45.44c.63.61,1.24,1.26,1.81,1.93l.4.47,11.19-2.82.39.65a39,39,0,0,1,4.91,13.06l.14.75-10.28,5.15V182c0,.88,0,1.77-.08,2.65l0,.62,9.91,5.92-.18.73a39.18,39.18,0,0,1-5.76,12.7l-.43.62-10.92-3.63-.44.45c-.61.63-1.26,1.24-1.93,1.81l-.47.4,2.82,11.19-.65.39a39,39,0,0,1-13.06,4.91l-.75.14-5.15-10.28h-1.09c-.73,0-1.46,0-2.19-.09l-.62,0-5.92,9.91-.73-.18a39.2,39.2,0,0,1-12.7-5.76l-.63-.43,3.63-10.92-.45-.44c-.63-.61-1.24-1.26-1.81-1.93l-.4-.47-11.19,2.82-.39-.65a39,39,0,0,1-4.91-13.06l-.14-.75,10.28-5.15v-.63c0-.88,0-1.78.08-2.65l0-.62-9.91-5.92.18-.73a39.29,39.29,0,0,1,5.76-12.71l.43-.62,10.92,3.63.44-.45c.61-.63,1.26-1.24,1.93-1.81l.47-.4-2.82-11.19.65-.39a39,39,0,0,1,13.06-4.91l.75-.14Z"/><path class="cls-3" d="M343.14,166a16.43,16.43,0,0,1,14.95,23.23,16.48,16.48,0,0,1-15,9.64,16.43,16.43,0,0,1-14.95-23.23A16.47,16.47,0,0,1,343.14,166Z"/><line class="cls-3" x1="163.5" y1="89.5" x2="164.5" y2="89.5"/><line class="cls-6" x1="167.51" y1="89.5" x2="371.99" y2="89.5"/><line class="cls-3" x1="373.5" y1="89.5" x2="374.5" y2="89.5"/><line class="cls-7" x1="178.5" y1="-41.46" x2="178.5" y2="103.98"/><line class="cls-3" x1="178.5" y1="105.5" x2="178.5" y2="106.5"/><line class="cls-3" x1="999.5" y1="170.5" x2="999.5" y2="171.5"/><line class="cls-8" x1="999.5" y1="174.5" x2="999.5" y2="298"/><line class="cls-3" x1="999.5" y1="299.5" x2="999.5" y2="300.5"/><line class="cls-3" x1="1315.5" y1="185.5" x2="1314.5" y2="185.5"/><line class="cls-9" x1="1311.52" y1="185.5" x2="984.99" y2="185.5"/><line class="cls-3" x1="983.5" y1="185.5" x2="982.5" y2="185.5"/><path class="cls-3" d="M598.12,49.89l-.8.59"/><path class="cls-10" d="M594.84,52.21c-12.35,8.26-58.19,35-113.73,19.6C420,54.86,386.54-27,380.87-41.95"/><polyline class="cls-3" points="588.97 45.81 602.57 46.13 601.67 58.91"/></g></svg>