<?xml version="1.0" encoding="utf-8"?>
<!-- Generator: Adobe Illustrator 21.0.2, SVG Export Plug-In . SVG Version: 6.00 Build 0)  -->
<svg version="1.1" id="Layer_1" xmlns="http://www.w3.org/2000/svg" xmlns:xlink="http://www.w3.org/1999/xlink" x="0px" y="0px"
	 viewBox="0 0 167 167" style="enable-background:new 0 0 167 167;" xml:space="preserve">
<style type="text/css">
	.st0{filter:url(#filter-2);}
	.st1{fill:#BA4C1B;}
	.st2{enable-background:new    ;}
	.st3{fill:#FFFFFF;}
</style>
<filter  filterUnits="objectBoundingBox" height="103.0%" id="filter-2" width="117.2%" x="-11.0%" y="-1.5%">
	<feOffset  dx="-1" dy="0" in="SourceAlpha" result="shadowOffsetOuter1"></feOffset>
	<feGaussianBlur  in="shadowOffsetOuter1" result="shadowBlurOuter1" stdDeviation="1"></feGaussianBlur>
	<feColorMatrix  in="shadowBlurOuter1" type="matrix" values="0 0 0 0 0   0 0 0 0 0   0 0 0 0 0  0 0 0 0.5 0"></feColorMatrix>
</filter>
<title>2016_Banner_OrangeSVG</title>
<desc>Created with Sketch.</desc>
<g id="Thumbnails">
	<g id="alternatives_TDC_thumb" transform="translate(-133.000000, 0.000000)">
		<g id="_x32_016_x5F_Banner_x5F_Orange" transform="translate(135.291293, -29.571579)">
			<g id="Rectangle-2" transform="translate(96.871562, 97.356843) rotate(-45.000000) translate(-96.871562, -97.356843) ">
				<g class="st0">
					<polygon id="path-1_2_" points="76.7,-19 117.3,21.7 117.1,173.1 76.5,213.7 					"/>
				</g>
				<g>
					<polygon id="path-1_1_" class="st1" points="76.7,-19 117.3,21.7 117.1,173.1 76.5,213.7 					"/>
				</g>
			</g>
			<g class="st2">
				<path class="st3" d="M52.1,64.4l-7.9-7.9l1.1-1.1l8.8-0.5c1.3-0.1,2.3-0.2,3-0.4c0.7-0.2,1.2-0.5,1.7-1c0.6-0.6,1-1.3,1-2.1
					c0-0.8-0.3-1.5-0.9-2.1c-0.8-0.8-1.6-1.1-2.4-1.1c-0.9,0-1.7,0.4-2.4,1.2l-1.5-1.5c1.1-1.1,2.4-1.7,3.8-1.6s2.7,0.6,3.9,1.8
					c1.1,1.1,1.7,2.3,1.8,3.5s-0.4,2.3-1.4,3.3c-1.2,1.2-3.4,1.8-6.5,2L47.3,57l6.1,6.1L52.1,64.4z"/>
				<path class="st3" d="M66.2,68.2c-1.8,1.8-3.4,2.8-4.9,3.1s-2.9-0.3-4.2-1.6c-1.3-1.3-1.8-2.7-1.6-4.1c0.2-1.5,1.2-3.1,2.9-4.8
					l2-2c1.8-1.8,3.4-2.8,4.9-3c1.5-0.2,2.9,0.3,4.2,1.6c1.3,1.3,1.8,2.7,1.6,4.1s-1.2,3-2.9,4.8L66.2,68.2z M66.8,64.6
					c1.3-1.3,2.1-2.4,2.3-3.4c0.2-1-0.1-1.8-0.8-2.6c-0.8-0.8-1.7-1.1-2.6-0.8c-1,0.2-2,1-3.3,2.2l-2.5,2.5
					c-1.3,1.3-2.1,2.5-2.3,3.5s0,1.9,0.8,2.7c0.8,0.8,1.6,1,2.6,0.8s2.1-0.9,3.3-2.2L66.8,64.6z"/>
				<path class="st3" d="M67.7,80l-1.5-1.5l10.2-10.2l-4.2-2l1.4-1.4l6,2.7l0.2,0.2L67.7,80z"/>
				<path class="st3" d="M89.1,77.2l-1.3,1.3l-0.3-0.3c-1.2-1.2-2.5-1.8-3.9-1.8c-1.4,0-2.8,0.5-4.1,1.7c1.4-0.1,2.6,0.4,3.7,1.5
					c1.1,1.1,1.5,2.3,1.4,3.6c-0.1,1.4-0.8,2.6-1.9,3.8c-1.2,1.2-2.6,1.9-4,2s-2.7-0.5-3.8-1.6c-1.2-1.2-1.6-2.5-1.5-4.1
					c0.2-1.6,1-3.1,2.3-4.5l0.6-0.6c2.2-2.2,4.4-3.4,6.5-3.7c2.1-0.2,4.1,0.6,6,2.4L89.1,77.2z M81.7,80.7c-0.5-0.5-1.2-0.9-1.9-1
					c-0.8-0.1-1.5,0-2.1,0.3l-0.6,0.6c-1,1-1.6,2-1.7,3.1c-0.2,1.1,0.1,1.9,0.8,2.6c0.7,0.7,1.5,1,2.4,0.9s1.8-0.6,2.6-1.4
					c0.8-0.8,1.3-1.7,1.4-2.6C82.6,82.1,82.4,81.3,81.7,80.7z"/>
				<path class="st3" d="M91.6,96.2L90.2,98l1.8-1.1l10.8-6l1.3,1.3L98.1,103l-1.1,1.8l1.9-1.4l10.1-6.4l1.6,1.6l-15,9.1l-1.5-1.5
					l6.3-11.3l0.7-1.1l-1.1,0.7l-11.4,6.2l-1.4-1.5l9.1-15l1.6,1.6L91.6,96.2z"/>
				<path class="st3" d="M101.7,113.9l-1.5-1.5l9-9l1.5,1.5L101.7,113.9z M111.4,100.9c0.2-0.2,0.5-0.4,0.9-0.4s0.6,0.1,0.9,0.4
					c0.3,0.3,0.4,0.6,0.4,0.9c0,0.3-0.1,0.6-0.4,0.9s-0.5,0.4-0.9,0.4c-0.3,0-0.6-0.1-0.9-0.4c-0.3-0.3-0.4-0.6-0.4-0.9
					C111,101.4,111.1,101.1,111.4,100.9z"/>
				<path class="st3" d="M114.4,108.7l-1.1,1.2c1.5-0.2,2.9,0.3,4,1.4c1.9,1.9,1.8,3.9-0.3,6.1l-5.9,5.9l-1.5-1.5l5.9-5.9
					c0.6-0.7,1-1.3,1-1.9c0-0.6-0.3-1.2-0.9-1.8c-0.5-0.5-1.1-0.8-1.7-0.9c-0.6-0.1-1.3-0.1-1.9,0.2l-6.4,6.4l-1.5-1.5l9-9
					L114.4,108.7z"/>
				<path class="st3" d="M123.7,118l-1.1,1.2c1.5-0.2,2.9,0.3,4,1.4c1.9,1.9,1.8,3.9-0.3,6.1l-5.9,5.9l-1.5-1.5l5.9-5.9
					c0.6-0.7,1-1.3,1-1.9c0-0.6-0.3-1.2-0.9-1.8c-0.5-0.5-1.1-0.8-1.7-0.9c-0.6-0.1-1.3-0.1-1.9,0.2l-6.4,6.4l-1.5-1.5l9-9
					L123.7,118z"/>
				<path class="st3" d="M126.1,138.7c-1.2-1.2-1.8-2.6-1.8-4.2s0.7-3,2.1-4.3l0.3-0.3c0.9-0.9,1.9-1.5,2.9-1.9
					c1-0.4,2.1-0.4,3.1-0.2c1,0.2,1.9,0.7,2.6,1.4c1.2,1.2,1.7,2.5,1.6,3.9s-0.9,2.8-2.3,4.3l-0.6,0.6l-6.1-6.1
					c-0.9,0.9-1.3,1.9-1.4,2.9c0,1,0.3,1.9,1.1,2.7c0.5,0.5,1.1,0.9,1.7,1c0.6,0.2,1.2,0.2,1.9,0.1l0.2,1.7
					C129.3,140.7,127.6,140.2,126.1,138.7z M134,130.5c-0.6-0.6-1.4-0.9-2.2-0.9s-1.8,0.4-2.7,1.1l4.5,4.5l0.1-0.1
					c0.7-0.8,1.1-1.6,1.2-2.4C134.9,131.8,134.6,131.1,134,130.5z"/>
				<path class="st3" d="M143.5,140.6c-0.2-0.3-0.4-0.5-0.7-0.8c-1-1-2.1-1.3-3.3-0.8l-6.4,6.4l-1.5-1.5l9-9l1.5,1.5l-1,1.1
					c1.3-0.3,2.4,0,3.3,0.9c0.3,0.3,0.5,0.6,0.6,0.8L143.5,140.6z"/>
			</g>
		</g>
	</g>
</g>
</svg>
